<svg xmlns="http://www.w3.org/2000/svg" xmlns:xlink="http://www.w3.org/1999/xlink" version="1.1" width="256" height="256" viewBox="0 0 256 256" xml:space="preserve">

<defs>
</defs>
<g style="stroke: none; stroke-width: 0; stroke-dasharray: none; stroke-linecap: butt; stroke-linejoin: miter; stroke-miterlimit: 10; fill: none; fill-rule: nonzero; opacity: 1;" transform="translate(1.4065934065934016 1.4065934065934016) scale(2.81 2.81)" >
	<path d="M 12.613 27.594 h -2.334 c -2.016 0 -3.656 1.64 -3.656 3.656 v 9.663 c 0 0.552 0.448 1 1 1 s 1 -0.448 1 -1 v -5.159 h 5.646 v 5.159 c 0 0.552 0.448 1 1 1 s 1 -0.448 1 -1 V 31.25 C 16.269 29.234 14.628 27.594 12.613 27.594 z M 8.623 33.753 V 31.25 c 0 -0.913 0.743 -1.656 1.656 -1.656 h 2.334 c 0.913 0 1.656 0.743 1.656 1.656 v 2.503 H 8.623 z" style="stroke: none; stroke-width: 1; stroke-dasharray: none; stroke-linecap: butt; stroke-linejoin: miter; stroke-miterlimit: 10; fill: rgb(0,0,0); fill-rule: nonzero; opacity: 1;" transform=" matrix(1 0 0 1 0 0) " stroke-linecap="round" />
	<path d="M 19.544 39.913 c -0.552 0 -1 0.448 -1 1 s 0.448 1 1 1 h 5.05 c 0.552 0 1 -0.448 1 -1 s -0.448 -1 -1 -1 h -1.525 V 29.594 h 1.525 c 0.552 0 1 -0.448 1 -1 s -0.448 -1 -1 -1 h -5.05 c -0.552 0 -1 0.448 -1 1 s 0.448 1 1 1 h 1.525 v 10.318 H 19.544 z" style="stroke: none; stroke-width: 1; stroke-dasharray: none; stroke-linecap: butt; stroke-linejoin: miter; stroke-miterlimit: 10; fill: rgb(0,0,0); fill-rule: nonzero; opacity: 1;" transform=" matrix(1 0 0 1 0 0) " stroke-linecap="round" />
	<path d="M 73.782 35.499 c 4.464 0 8.096 -3.632 8.096 -8.096 s -3.632 -8.097 -8.096 -8.097 c -4.465 0 -8.097 3.632 -8.097 8.097 S 69.317 35.499 73.782 35.499 z M 73.782 21.306 c 3.361 0 6.096 2.735 6.096 6.097 c 0 3.361 -2.734 6.096 -6.096 6.096 s -6.097 -2.735 -6.097 -6.096 C 67.686 24.041 70.421 21.306 73.782 21.306 z" style="stroke: none; stroke-width: 1; stroke-dasharray: none; stroke-linecap: butt; stroke-linejoin: miter; stroke-miterlimit: 10; fill: rgb(0,0,0); fill-rule: nonzero; opacity: 1;" transform=" matrix(1 0 0 1 0 0) " stroke-linecap="round" />
	<path d="M 84.735 9.456 H 22.313 c -2.903 0 -5.265 2.362 -5.265 5.265 v 3.925 H 4.95 c -2.729 0 -4.95 2.221 -4.95 4.95 v 22.316 c 0 2.729 2.221 4.95 4.95 4.95 h 12.099 v 19.023 v 5.396 c 0 2.903 2.362 5.265 5.265 5.265 h 62.422 c 2.903 0 5.265 -2.361 5.265 -5.265 V 60.244 V 14.72 C 90 11.817 87.639 9.456 84.735 9.456 z M 2 45.912 V 23.595 c 0 -1.627 1.323 -2.95 2.95 -2.95 h 13.099 h 9.218 c 1.627 0 2.95 1.323 2.95 2.95 v 22.316 c 0 1.626 -1.323 2.95 -2.95 2.95 h -9.218 H 4.95 C 3.323 48.861 2 47.538 2 45.912 z M 27.267 50.861 c 2.729 0 4.95 -2.221 4.95 -4.95 v -1.909 h 6.775 l 3.614 4.575 c 0.189 0.24 0.479 0.38 0.785 0.38 h 2.592 c 0.461 2.133 2.359 3.738 4.627 3.738 c 2.612 0 4.738 -2.126 4.738 -4.738 s -2.126 -4.738 -4.738 -4.738 c -2.269 0 -4.166 1.605 -4.627 3.738 h -2.107 l -3.614 -4.575 c -0.189 -0.24 -0.479 -0.38 -0.785 -0.38 h -7.259 v -6.249 h 13.765 c 0.461 2.133 2.359 3.738 4.627 3.738 c 2.612 0 4.738 -2.125 4.738 -4.738 s -2.126 -4.738 -4.738 -4.738 c -2.269 0 -4.166 1.605 -4.627 3.738 H 32.217 v -6.25 h 7.259 c 0.306 0 0.595 -0.14 0.785 -0.38 l 3.614 -4.575 h 2.107 c 0.461 2.133 2.359 3.738 4.627 3.738 c 2.612 0 4.738 -2.125 4.738 -4.738 s -2.126 -4.738 -4.738 -4.738 c -2.269 0 -4.166 1.605 -4.627 3.738 H 43.39 c -0.306 0 -0.595 0.14 -0.785 0.38 l -3.614 4.575 h -6.775 v -1.909 c 0 -2.729 -2.221 -4.95 -4.95 -4.95 h -8.218 V 14.72 c 0 -1.8 1.464 -3.265 3.265 -3.265 h 62.422 c 1.8 0 3.265 1.464 3.265 3.265 v 43.072 L 74.109 43.591 c -0.367 -0.375 -0.96 -0.401 -1.358 -0.066 L 44.029 67.672 l -10.537 -9.557 c -0.355 -0.323 -0.887 -0.347 -1.27 -0.062 L 19.049 67.89 V 50.861 H 27.267 z M 47.871 47.957 c 0 -1.51 1.229 -2.738 2.738 -2.738 s 2.738 1.228 2.738 2.738 s -1.229 2.738 -2.738 2.738 S 47.871 49.467 47.871 47.957 z M 47.871 34.753 c 0 -1.51 1.229 -2.738 2.738 -2.738 s 2.738 1.229 2.738 2.738 s -1.229 2.738 -2.738 2.738 S 47.871 36.263 47.871 34.753 z M 47.871 21.549 c 0 -1.51 1.229 -2.738 2.738 -2.738 s 2.738 1.229 2.738 2.738 s -1.229 2.738 -2.738 2.738 S 47.871 23.059 47.871 21.549 z M 88 75.28 c 0 1.8 -1.465 3.265 -3.265 3.265 H 22.313 c -1.8 0 -3.265 -1.465 -3.265 -3.265 v -4.895 l 13.71 -10.236 l 10.574 9.591 c 0.372 0.335 0.933 0.346 1.315 0.024 l 28.68 -24.112 l 14.672 15 V 75.28 z" style="stroke: none; stroke-width: 1; stroke-dasharray: none; stroke-linecap: butt; stroke-linejoin: miter; stroke-miterlimit: 10; fill: rgb(0,0,0); fill-rule: nonzero; opacity: 1;" transform=" matrix(1 0 0 1 0 0) " stroke-linecap="round" />
</g>
</svg>