<svg xmlns="http://www.w3.org/2000/svg" xmlns:xlink="http://www.w3.org/1999/xlink" version="1.1" width="256" height="256" viewBox="0 0 256 256" xml:space="preserve">

<defs>
</defs>
<g style="stroke: none; stroke-width: 0; stroke-dasharray: none; stroke-linecap: butt; stroke-linejoin: miter; stroke-miterlimit: 10; fill: none; fill-rule: nonzero; opacity: 1;" transform="translate(1.4065934065934016 1.4065934065934016) scale(2.81 2.81)" >
	<path d="M 23.11 55.553 h -3.023 c -2.446 0 -4.437 1.991 -4.437 4.437 v 12.515 c 0 0.551 0.446 0.997 0.997 0.997 c 0.55 0 0.997 -0.446 0.997 -0.997 v -6.981 h 7.909 v 6.981 c 0 0.551 0.446 0.997 0.997 0.997 s 0.997 -0.446 0.997 -0.997 V 59.99 C 27.546 57.544 25.556 55.553 23.11 55.553 z M 17.644 63.53 v -3.54 c 0 -1.347 1.096 -2.443 2.443 -2.443 h 3.023 c 1.347 0 2.443 1.096 2.443 2.443 v 3.54 H 17.644 z" style="stroke: none; stroke-width: 1; stroke-dasharray: none; stroke-linecap: butt; stroke-linejoin: miter; stroke-miterlimit: 10; fill: rgb(0,0,0); fill-rule: nonzero; opacity: 1;" transform=" matrix(1 0 0 1 0 0) " stroke-linecap="round" />
	<path d="M 38.577 57.546 c 0.55 0 0.997 -0.446 0.997 -0.997 c 0 -0.551 -0.446 -0.997 -0.997 -0.997 h -6.542 c -0.55 0 -0.997 0.446 -0.997 0.997 c 0 0.551 0.446 0.997 0.997 0.997 h 2.274 v 13.961 h -2.274 c -0.55 0 -0.997 0.446 -0.997 0.997 c 0 0.551 0.446 0.997 0.997 0.997 h 6.542 c 0.55 0 0.997 -0.446 0.997 -0.997 c 0 -0.551 -0.446 -0.997 -0.997 -0.997 h -2.274 V 57.546 H 38.577 z" style="stroke: none; stroke-width: 1; stroke-dasharray: none; stroke-linecap: butt; stroke-linejoin: miter; stroke-miterlimit: 10; fill: rgb(0,0,0); fill-rule: nonzero; opacity: 1;" transform=" matrix(1 0 0 1 0 0) " stroke-linecap="round" />
	<path d="M 82.948 18.863 l -0.561 -1.228 c -0.024 -0.062 -0.055 -0.12 -0.082 -0.18 l -0.002 -0.003 c -0.002 -0.003 -0.004 -0.006 -0.005 -0.01 c -0.094 -0.204 -0.201 -0.402 -0.33 -0.587 c -0.132 -0.194 -0.278 -0.373 -0.439 -0.535 L 66.486 1.277 c -0.164 -0.165 -0.347 -0.313 -0.545 -0.446 c -0.132 -0.09 -0.275 -0.161 -0.417 -0.234 c -0.059 -0.03 -0.111 -0.069 -0.172 -0.097 l -0.066 -0.03 c -0.029 -0.013 -0.056 -0.027 -0.085 -0.039 l -1.259 -0.574 v 0.306 c -0.065 -0.003 -0.128 -0.019 -0.194 -0.019 H 19.822 c -2.135 0 -3.872 1.737 -3.872 3.872 v 45.07 h -4.995 c -1.994 0 -3.616 1.58 -3.616 3.522 v 23.988 c 0 1.942 1.622 3.522 3.616 3.522 h 4.995 v 5.869 c 0 2.135 1.737 3.871 3.872 3.871 H 78.79 c 2.135 0 3.871 -1.737 3.871 -3.871 V 19.057 c 0 -0.066 -0.016 -0.129 -0.019 -0.194 H 82.948 z M 65.935 3.546 l 6.662 6.662 l 6.662 6.662 H 67.557 c -0.895 0 -1.623 -0.728 -1.623 -1.623 V 3.546 z M 10.956 78.122 c -0.895 0 -1.623 -0.685 -1.623 -1.528 V 52.606 c 0 -0.843 0.728 -1.528 1.623 -1.528 h 4.995 h 28.317 c 0.895 0 1.622 0.685 1.622 1.528 v 23.988 c 0 0.843 -0.728 1.528 -1.622 1.528 H 15.951 H 10.956 z M 80.668 19.057 v 66.928 c 0 1.036 -0.842 1.878 -1.878 1.878 H 19.822 c -1.036 0 -1.878 -0.842 -1.878 -1.878 v -5.869 h 26.324 c 1.994 0 3.616 -1.58 3.616 -3.522 v -5.773 h 5.717 v 5.097 c 0 0.551 0.446 0.997 0.997 0.997 h 11.743 c 0.463 2.284 2.485 4.008 4.903 4.008 c 2.76 0 5.005 -2.245 5.005 -5.005 c 0 -2.759 -2.245 -5.004 -5.005 -5.004 c -2.417 0 -4.439 1.724 -4.903 4.007 H 55.595 v -5.097 c 0 -0.551 -0.446 -0.997 -0.997 -0.997 h -6.714 v -3.231 h 11.098 c 0.551 0 0.997 -0.446 0.997 -0.997 v -4.663 h 6.362 c 0.463 2.284 2.485 4.008 4.903 4.008 c 2.76 0 5.005 -2.245 5.005 -5.005 c 0 -2.759 -2.245 -5.004 -5.005 -5.004 c -2.417 0 -4.439 1.724 -4.903 4.007 h -7.359 c -0.551 0 -0.997 0.446 -0.997 0.997 v 4.663 H 47.884 V 52.606 c 0 -1.942 -1.622 -3.522 -3.616 -3.522 H 17.944 V 4.015 c 0 -1.036 0.843 -1.878 1.878 -1.878 h 43.925 c 0.065 0 0.129 0.013 0.194 0.019 v 13.091 c 0 1.994 1.623 3.616 3.616 3.616 h 13.092 C 80.656 18.927 80.668 18.991 80.668 19.057 z M 68.234 75.918 c 0 -1.66 1.35 -3.01 3.01 -3.01 s 3.011 1.35 3.011 3.01 s -1.351 3.011 -3.011 3.011 S 68.234 77.578 68.234 75.918 z M 68.234 58.94 c 0 -1.66 1.35 -3.01 3.01 -3.01 s 3.011 1.35 3.011 3.01 s -1.351 3.011 -3.011 3.011 S 68.234 60.6 68.234 58.94 z" style="stroke: none; stroke-width: 1; stroke-dasharray: none; stroke-linecap: butt; stroke-linejoin: miter; stroke-miterlimit: 10; fill: rgb(0,0,0); fill-rule: nonzero; opacity: 1;" transform=" matrix(1 0 0 1 0 0) " stroke-linecap="round" />
	<path d="M 25.041 20.346 h 27.475 c 0.551 0 0.997 -0.446 0.997 -0.997 s -0.446 -0.997 -0.997 -0.997 H 25.041 c -0.55 0 -0.997 0.446 -0.997 0.997 S 24.49 20.346 25.041 20.346 z" style="stroke: none; stroke-width: 1; stroke-dasharray: none; stroke-linecap: butt; stroke-linejoin: miter; stroke-miterlimit: 10; fill: rgb(0,0,0); fill-rule: nonzero; opacity: 1;" transform=" matrix(1 0 0 1 0 0) " stroke-linecap="round" />
	<path d="M 24.044 29.317 c 0 0.55 0.446 0.997 0.997 0.997 h 47.411 c 0.551 0 0.997 -0.446 0.997 -0.997 s -0.446 -0.997 -0.997 -0.997 H 25.041 C 24.49 28.32 24.044 28.767 24.044 29.317 z" style="stroke: none; stroke-width: 1; stroke-dasharray: none; stroke-linecap: butt; stroke-linejoin: miter; stroke-miterlimit: 10; fill: rgb(0,0,0); fill-rule: nonzero; opacity: 1;" transform=" matrix(1 0 0 1 0 0) " stroke-linecap="round" />
	<path d="M 72.452 38.289 H 25.041 c -0.55 0 -0.997 0.446 -0.997 0.997 s 0.446 0.997 0.997 0.997 h 47.411 c 0.551 0 0.997 -0.446 0.997 -0.997 S 73.003 38.289 72.452 38.289 z" style="stroke: none; stroke-width: 1; stroke-dasharray: none; stroke-linecap: butt; stroke-linejoin: miter; stroke-miterlimit: 10; fill: rgb(0,0,0); fill-rule: nonzero; opacity: 1;" transform=" matrix(1 0 0 1 0 0) " stroke-linecap="round" />
</g>
</svg>