<svg xmlns="http://www.w3.org/2000/svg" xmlns:xlink="http://www.w3.org/1999/xlink" version="1.1" x="0px" y="0px" viewBox="0 0 68 85" style="enable-background:new 0 0 68 68;" xml:space="preserve"><g><g><path d="M5.04,63.22c-0.05,0-0.1-0.01-0.16-0.03c-2.17-0.71-3.62-2.73-3.62-5.02V6.81c0-2.93,2.38-5.32,5.31-5.32h30.87    c0.75,0,1.5,0.16,2.21,0.48c0.55,0.25,1.06,0.6,1.54,1.05l10.58,10.59c0.2,0.2,0.2,0.51,0,0.71c-0.2,0.19-0.51,0.19-0.71,0    L40.49,3.75c-0.38-0.37-0.81-0.66-1.25-0.86c-0.58-0.26-1.18-0.4-1.79-0.4H6.57c-2.38,0-4.31,1.94-4.31,4.32v51.36    c0,1.86,1.18,3.5,2.94,4.08c0.26,0.09,0.41,0.37,0.32,0.63C5.44,63.09,5.25,63.22,5.04,63.22z"/></g><g><path d="M51.02,66.5H9.59c-2.93,0-5.31-2.38-5.31-5.31V9.83c0-2.93,2.38-5.32,5.31-5.32h30.87c0.75,0,1.5,0.16,2.21,0.48    c0.54,0.25,1.06,0.6,1.54,1.05l10.58,10.59c0.47,0.48,0.83,1,1.07,1.56c0.32,0.68,0.48,1.43,0.48,2.2v6.84    c0,0.28-0.22,0.5-0.5,0.5c-0.28,0-0.5-0.22-0.5-0.5V20.4c0-0.63-0.13-1.23-0.39-1.79c-0.2-0.46-0.5-0.88-0.87-1.27L43.5,6.77    c-0.39-0.37-0.81-0.66-1.25-0.86c-0.58-0.26-1.18-0.4-1.79-0.4H9.59c-2.38,0-4.31,1.94-4.31,4.32V61.2c0,2.38,1.93,4.31,4.31,4.31    h41.43c2.38,0,4.32-1.93,4.32-4.31v-5.34c0-0.28,0.22-0.5,0.5-0.5c0.28,0,0.5,0.22,0.5,0.5v5.34    C56.34,64.12,53.95,66.5,51.02,66.5z"/></g><g><g><path d="M26.41,59.59H10.57c-0.28,0-0.5-0.22-0.5-0.5s0.22-0.5,0.5-0.5h15.84c0.28,0,0.5,0.22,0.5,0.5S26.68,59.59,26.41,59.59z"/></g><g><path d="M40.96,51.73h-30.4c-0.28,0-0.5-0.22-0.5-0.5s0.22-0.5,0.5-0.5h30.4c0.28,0,0.5,0.22,0.5,0.5S41.24,51.73,40.96,51.73z"/></g><g><path d="M36.96,43.87h-26.4c-0.28,0-0.5-0.22-0.5-0.5s0.22-0.5,0.5-0.5h26.4c0.28,0,0.5,0.22,0.5,0.5S37.24,43.87,36.96,43.87z"/></g><g><path d="M37.54,36.01H10.57c-0.28,0-0.5-0.22-0.5-0.5s0.22-0.5,0.5-0.5h26.98c0.28,0,0.5,0.22,0.5,0.5S37.82,36.01,37.54,36.01z"/></g><g><path d="M43.5,28.15H10.57c-0.28,0-0.5-0.22-0.5-0.5s0.22-0.5,0.5-0.5H43.5c0.28,0,0.5,0.22,0.5,0.5S43.78,28.15,43.5,28.15z"/></g><g><path d="M36.51,20.29H10.57c-0.28,0-0.5-0.22-0.5-0.5s0.22-0.5,0.5-0.5h25.94c0.28,0,0.5,0.22,0.5,0.5S36.79,20.29,36.51,20.29z"/></g><g><path d="M29.54,12.43H10.57c-0.28,0-0.5-0.22-0.5-0.5s0.22-0.5,0.5-0.5h18.97c0.28,0,0.5,0.22,0.5,0.5S29.82,12.43,29.54,12.43z"/></g></g><g><g><path d="M61.98,64.78c-1.65,0-3.16-0.98-3.83-2.5l-3.78-8.49c-0.11-0.25,0-0.55,0.25-0.66c0.25-0.11,0.55,0,0.66,0.25l3.78,8.49     c0.68,1.55,2.49,2.36,4.21,1.62c1.6-0.71,2.32-2.6,1.61-4.2l-3.81-8.58c-0.11-0.25,0-0.55,0.25-0.66s0.55,0,0.66,0.25l3.81,8.58     c0.94,2.1-0.01,4.58-2.12,5.52C63.11,64.65,62.54,64.78,61.98,64.78z"/></g><g><path d="M52.82,54.24c-1.69,0-3.38-0.31-5.01-0.94c-3.47-1.34-6.21-3.94-7.72-7.34c-3.12-7.02,0.06-15.26,7.07-18.38     c7.02-3.11,15.26,0.06,18.38,7.07l0,0c1.51,3.4,1.6,7.18,0.27,10.65s-3.94,6.21-7.34,7.72C56.66,53.84,54.74,54.24,52.82,54.24z      M52.8,27.39c-1.75,0-3.53,0.36-5.23,1.11c-6.51,2.89-9.46,10.54-6.57,17.06c1.4,3.15,3.95,5.58,7.17,6.81     c3.22,1.24,6.73,1.15,9.89-0.25c3.16-1.4,5.58-3.95,6.82-7.17c1.24-3.22,1.15-6.73-0.25-9.89l0,0     C62.49,30.25,57.75,27.39,52.8,27.39z"/></g><g><path d="M52.83,49.87c-3.67,0-7.17-2.12-8.75-5.68c-1.04-2.33-1.1-4.93-0.19-7.31c0.92-2.38,2.71-4.27,5.04-5.3     s4.93-1.1,7.31-0.18c2.38,0.92,4.27,2.71,5.3,5.04c1.04,2.33,1.1,4.93,0.19,7.31c-0.92,2.38-2.71,4.27-5.04,5.3     C55.44,49.6,54.12,49.87,52.83,49.87z M52.81,31.75c-1.18,0-2.36,0.25-3.47,0.74c-2.09,0.93-3.69,2.61-4.51,4.75     c-0.82,2.13-0.76,4.46,0.17,6.55c1.92,4.31,6.99,6.26,11.29,4.35c2.09-0.93,3.69-2.61,4.51-4.75c0.82-2.13,0.76-4.46-0.17-6.55     l0,0c-0.93-2.09-2.61-3.69-4.75-4.51C54.89,31.94,53.85,31.75,52.81,31.75z"/></g></g><g><path d="M55.4,18.91H45.09c-1.73,0-3.14-1.41-3.14-3.15V5.45c0-0.17,0.09-0.33,0.23-0.42c0.14-0.09,0.32-0.11,0.48-0.04    c0.56,0.25,1.08,0.61,1.54,1.06l10.57,10.58c0.46,0.46,0.83,0.99,1.08,1.56c0.07,0.15,0.05,0.33-0.04,0.48    C55.73,18.82,55.57,18.91,55.4,18.91z M42.96,6.32v9.45c0,1.18,0.96,2.15,2.14,2.15h9.45c-0.14-0.19-0.3-0.38-0.47-0.56L43.5,6.77    C43.33,6.6,43.15,6.45,42.96,6.32z"/></g></g><text x="0" y="83" fill="#000000" font-size="5px" font-weight="bold" font-family="'Helvetica Neue', Helvetica, Arial-Unicode, Arial, Sans-serif">Created by Bricksstock</text><text x="0" y="88" fill="#000000" font-size="5px" font-weight="bold" font-family="'Helvetica Neue', Helvetica, Arial-Unicode, Arial, Sans-serif">from the Noun Project</text></svg>